<svg xmlns="http://www.w3.org/2000/svg" xmlns:xlink="http://www.w3.org/1999/xlink" width="237" height="54" viewBox="0 0 237 54">
  <defs>
    <path id="logo-b" d="M22.865,45 C22.6549989,45 22.55,44.8950011 22.55,44.685 L22.55,40.05 C22.55,39.839999 22.6549989,39.735 22.865,39.735 L30.29,39.735 C31.3700054,39.735 32.2774963,39.3450039 33.0125,38.565 C33.7475037,37.7849961 34.115,36.8550054 34.115,35.775 C34.115,34.6949946 33.7400037,33.7875037 32.99,33.0525 C32.2399962,32.3174963 31.3400052,31.95 30.29,31.95 L24.62,31.95 C24.3199985,31.95 24.17,31.8000015 24.17,31.5 L24.17,26.82 C24.17,26.7599997 24.1999997,26.6925004 24.26,26.6175 C24.3200003,26.5424996 24.3949996,26.505 24.485,26.505 L27.005,26.505 C28.0250051,26.505 28.9024963,26.1300038 29.6375,25.38 C30.3725037,24.6299962 30.74,23.7450051 30.74,22.725 C30.74,21.6749948 30.3650037,20.7750038 29.615,20.025 C28.8649963,19.2749963 27.9650053,18.9 26.915,18.9 L23.675,18.9 C23.2549979,18.9 22.8875016,19.0499985 22.5725,19.35 C22.2574984,19.6500015 22.1,20.0099979 22.1,20.43 L22.1,21.6 C22.1,21.6900004 22.0625004,21.7649997 21.9875,21.825 C21.9124996,21.8850003 21.8450003,21.915 21.785,21.915 L17.87,21.915 C17.6299988,21.915 17.51,21.810001 17.51,21.6 L17.51,13.815 C17.51,13.6049989 17.6299988,13.5 17.87,13.5 L26.915,13.5 C28.5950084,13.5 30.1399929,13.9124959 31.55,14.7375 C32.9600071,15.5625041 34.0774959,16.6799929 34.9025,18.09 C35.7275041,19.5000071 36.14,21.0449916 36.14,22.725 C36.14,24.4650087 35.6600048,26.0999924 34.7,27.63 C36.2000075,28.4700042 37.3849957,29.6174927 38.255,31.0725 C39.1250043,32.5275073 39.56,34.0949916 39.56,35.775 C39.56,37.4550084 39.1475041,38.9999929 38.3225,40.41 C37.4974959,41.8200071 36.3725071,42.9374959 34.9475,43.7625 C33.5224929,44.5875041 31.9700084,45 30.29,45 L22.865,45 Z"/>
    <filter id="logo-a" width="204.3%" height="173%" x="-52.2%" y="-20.6%" filterUnits="objectBoundingBox">
      <feOffset dy="5" in="SourceAlpha" result="shadowOffsetOuter1"/>
      <feGaussianBlur in="shadowOffsetOuter1" result="shadowBlurOuter1" stdDeviation="3"/>
      <feColorMatrix in="shadowBlurOuter1" values="0 0 0 0 0   0 0 0 0 0   0 0 0 0 0  0 0 0 0.363536005 0"/>
    </filter>
  </defs>
  <g fill="none" fill-rule="evenodd" transform="translate(0 -3)">
    <path fill="#2F2F2F" d="M68.033,44 C67.8356657,44 67.6691673,43.938334 67.5335,43.815 C67.3978327,43.6916661 67.33,43.5313343 67.33,43.334 L67.33,30.421 C67.33,30.2236657 67.3978327,30.0571673 67.5335,29.9215 C67.6691673,29.7858327 67.8356657,29.718 68.033,29.718 L75.692,29.718 C76.6786716,29.718 77.5111633,29.3850033 78.1895,28.719 C78.8678367,28.0529967 79.207,27.251338 79.207,26.314 C79.207,25.3519952 78.8678367,24.5380033 78.1895,23.872 C77.5111633,23.2059967 76.6786716,22.873 75.692,22.873 L72.584,22.873 C72.3126653,22.873 72.0845009,22.9654991 71.8995,23.1505 C71.7144991,23.3355009 71.622,23.5513321 71.622,23.798 L71.622,24.723 C71.622,24.9696679 71.5356675,25.1854991 71.363,25.3705 C71.1903325,25.5555009 70.9683347,25.648 70.697,25.648 L68.255,25.648 C68.0083321,25.648 67.7925009,25.5555009 67.6075,25.3705 C67.4224991,25.1854991 67.33,24.9696679 67.33,24.723 L67.33,18.766 C67.33,18.5686657 67.3978327,18.4021673 67.5335,18.2665 C67.6691673,18.1308327 67.8356657,18.063 68.033,18.063 L75.692,18.063 C77.221341,18.063 78.6273269,18.4329963 79.91,19.173 C81.1926731,19.9130037 82.2101629,20.9119937 82.9625,22.17 C83.7148371,23.4280063 84.091,24.8093258 84.091,26.314 C84.091,27.5966731 83.8011696,28.8053277 83.2215,29.94 C82.6418304,31.0746723 81.8463384,32.0243295 80.835,32.789 C80.6869993,32.8876672 80.613,33.0109993 80.613,33.159 C80.613,33.3070007 80.6253332,33.4303328 80.65,33.529 L84.942,43.112 C85.0406672,43.2846675 85.09,43.4449993 85.09,43.593 C85.09,43.8643347 84.9173351,44 84.572,44 L81.538,44 C81.2666653,44 81.0631673,43.9753336 80.9275,43.926 C80.7918327,43.8766664 80.6746672,43.7533343 80.576,43.556 L76.728,34.898 C76.6539996,34.7499993 76.555334,34.6513336 76.432,34.602 C76.308666,34.5526664 76.0620019,34.528 75.692,34.528 L72.547,34.528 C72.2509985,34.528 72.0228341,34.5711662 71.8625,34.6575 C71.7021659,34.7438338 71.622,34.9226653 71.622,35.194 L71.622,43.334 C71.622,43.5313343 71.5541673,43.6916661 71.4185,43.815 C71.2828327,43.938334 71.1163343,44 70.919,44 L68.033,44 Z M94.451,41.299 C92.921659,39.9916601 91.7500041,38.4315091 90.936,36.6185 C90.1219959,34.8054909 89.715,32.9246764 89.715,30.976 C89.715,29.446659 89.9678308,27.948174 90.4735,26.4805 C90.9791692,25.012826 91.7376616,23.6746727 92.749,22.466 C93.9576727,20.9859926 95.3759919,19.8451707 97.004,19.0435 C98.6320081,18.2418293 100.346324,17.7916672 102.147,17.693 L102.221,17.693 C102.418334,17.693 102.584833,17.7669993 102.7205,17.915 C102.856167,18.0630007 102.936333,18.2479989 102.961,18.47 L102.961,21.689 C102.961,22.157669 102.702003,22.4166664 102.184,22.466 C101.073994,22.5646672 100.013338,22.879164 99.002,23.4095 C97.9906616,23.939836 97.1396701,24.6489956 96.449,25.537 C95.1169933,27.1650081 94.451,29.0026564 94.451,31.05 C94.451,32.2833395 94.7099974,33.4734943 95.228,34.6205 C95.7460026,35.7675057 96.4859952,36.7479959 97.448,37.562 C99.0760081,38.8940067 100.901323,39.56 102.924,39.56 C104.15734,39.56 105.341328,39.3010026 106.476,38.783 C107.610672,38.2649974 108.572663,37.5126716 109.362,36.526 C110.028003,35.7366627 110.527498,34.8671714 110.8605,33.9175 C111.193502,32.9678286 111.36,31.9996716 111.36,31.013 C111.36,29.606993 111.05167,28.2996727 110.435,27.091 C110.311666,26.8443321 110.25,26.5976679 110.25,26.351 C110.25,26.0303317 110.397999,25.7466679 110.694,25.5 C110.891334,25.3766661 111.273664,25.1176686 111.841,24.723 C112.408336,24.3283314 112.765999,24.0816672 112.914,23.983 C113.111334,23.8596661 113.296332,23.798 113.469,23.798 C113.863669,23.798 114.159666,23.9829982 114.357,24.353 C115.541006,26.4250104 116.133,28.6573214 116.133,31.05 C116.133,32.6040078 115.874003,34.114826 115.356,35.5825 C114.837997,37.050174 114.073338,38.3883273 113.062,39.597 C111.853327,41.1510078 110.342509,42.3411625 108.5295,43.1675 C106.716491,43.9938375 104.823343,44.407 102.85,44.407 C101.295992,44.407 99.7913406,44.141836 98.336,43.6115 C96.8806594,43.081164 95.5856723,42.3103384 94.451,41.299 Z M133.634,44.333 C131.265988,44.333 129.08301,43.7410059 127.085,42.557 C125.08699,41.3729941 123.502173,39.7635102 122.3305,37.7285 C121.158827,35.6934898 120.573,33.4673454 120.573,31.05 C120.573,28.6573214 121.158827,26.4435102 122.3305,24.4085 C123.502173,22.3734898 125.08699,20.7578393 127.085,19.5615 C129.08301,18.3651607 131.265988,17.767 133.634,17.767 C135.533343,17.767 137.315492,18.1493295 138.9805,18.914 C140.645508,19.6786705 142.082327,20.7269933 143.291,22.059 C143.389667,22.1576672 143.439,22.2809993 143.439,22.429 C143.439,22.6016675 143.377334,22.7373328 143.254,22.836 L140.59,25.13 C140.466666,25.253334 140.331001,25.315 140.183,25.315 C140.034999,25.315 139.911667,25.253334 139.813,25.13 C139.023663,24.2666624 138.092505,23.5945024 137.0195,23.1135 C135.946495,22.6324976 134.818006,22.392 133.634,22.392 C132.104659,22.392 130.692506,22.7804961 129.3975,23.5575 C128.102494,24.3345039 127.07267,25.3889933 126.308,26.721 C125.54333,28.0530067 125.161,29.4959922 125.161,31.05 C125.161,32.6040078 125.54333,34.0469933 126.308,35.379 C127.07267,36.7110067 128.102494,37.7654961 129.3975,38.5425 C130.692506,39.3195039 132.104659,39.708 133.634,39.708 C134.768672,39.708 135.841662,39.4921688 136.853,39.0605 C137.864338,38.6288312 138.764663,38.0183373 139.554,37.229 C139.776001,37.0316657 140.010332,36.933 140.257,36.933 C140.479001,36.933 140.651666,36.994666 140.775,37.118 L141.478,37.71 L142.958,39.042 C143.204668,39.2146675 143.328,39.4489985 143.328,39.745 C143.328,39.9176675 143.266334,40.065666 143.143,40.189 C141.934327,41.4963399 140.509842,42.5138297 138.8695,43.2415 C137.229158,43.9691703 135.484009,44.333 133.634,44.333 Z M161.532,44.333 C159.163988,44.333 156.98101,43.7410059 154.983,42.557 C152.98499,41.3729941 151.400173,39.7635102 150.2285,37.7285 C149.056827,35.6934898 148.471,33.4673454 148.471,31.05 C148.471,28.6573214 149.056827,26.4435102 150.2285,24.4085 C151.400173,22.3734898 152.98499,20.7578393 154.983,19.5615 C156.98101,18.3651607 159.163988,17.767 161.532,17.767 C163.431343,17.767 165.213492,18.1493295 166.8785,18.914 C168.543508,19.6786705 169.980327,20.7269933 171.189,22.059 C171.287667,22.1576672 171.337,22.2809993 171.337,22.429 C171.337,22.6016675 171.275334,22.7373328 171.152,22.836 L168.488,25.13 C168.364666,25.253334 168.229001,25.315 168.081,25.315 C167.932999,25.315 167.809667,25.253334 167.711,25.13 C166.921663,24.2666624 165.990505,23.5945024 164.9175,23.1135 C163.844495,22.6324976 162.716006,22.392 161.532,22.392 C160.002659,22.392 158.590506,22.7804961 157.2955,23.5575 C156.000494,24.3345039 154.97067,25.3889933 154.206,26.721 C153.44133,28.0530067 153.059,29.4959922 153.059,31.05 C153.059,32.6040078 153.44133,34.0469933 154.206,35.379 C154.97067,36.7110067 156.000494,37.7654961 157.2955,38.5425 C158.590506,39.3195039 160.002659,39.708 161.532,39.708 C162.666672,39.708 163.739662,39.4921688 164.751,39.0605 C165.762338,38.6288312 166.662663,38.0183373 167.452,37.229 C167.674001,37.0316657 167.908332,36.933 168.155,36.933 C168.377001,36.933 168.549666,36.994666 168.673,37.118 L169.376,37.71 L170.856,39.042 C171.102668,39.2146675 171.226,39.4489985 171.226,39.745 C171.226,39.9176675 171.164334,40.065666 171.041,40.189 C169.832327,41.4963399 168.407842,42.5138297 166.7675,43.2415 C165.127158,43.9691703 163.382009,44.333 161.532,44.333 Z M180.735,41.299 C179.205659,39.9916601 178.034004,38.4315091 177.22,36.6185 C176.405996,34.8054909 175.999,32.9246764 175.999,30.976 C175.999,29.446659 176.251831,27.948174 176.7575,26.4805 C177.263169,25.012826 178.021662,23.6746727 179.033,22.466 C180.241673,20.9859926 181.659992,19.8451707 183.288,19.0435 C184.916008,18.2418293 186.630324,17.7916672 188.431,17.693 L188.505,17.693 C188.702334,17.693 188.868833,17.7669993 189.0045,17.915 C189.140167,18.0630007 189.220333,18.2479989 189.245,18.47 L189.245,21.689 C189.245,22.157669 188.986003,22.4166664 188.468,22.466 C187.357994,22.5646672 186.297338,22.879164 185.286,23.4095 C184.274662,23.939836 183.42367,24.6489956 182.733,25.537 C181.400993,27.1650081 180.735,29.0026564 180.735,31.05 C180.735,32.2833395 180.993997,33.4734943 181.512,34.6205 C182.030003,35.7675057 182.769995,36.7479959 183.732,37.562 C185.360008,38.8940067 187.185323,39.56 189.208,39.56 C190.441339,39.56 191.625328,39.3010026 192.76,38.783 C193.894672,38.2649974 194.856663,37.5126716 195.646,36.526 C196.312003,35.7366627 196.811498,34.8671714 197.1445,33.9175 C197.477502,32.9678286 197.644,31.9996716 197.644,31.013 C197.644,29.606993 197.33567,28.2996727 196.719,27.091 C196.595666,26.8443321 196.534,26.5976679 196.534,26.351 C196.534,26.0303317 196.681999,25.7466679 196.978,25.5 C197.175334,25.3766661 197.557664,25.1176686 198.125,24.723 C198.692336,24.3283314 199.049999,24.0816672 199.198,23.983 C199.395334,23.8596661 199.580332,23.798 199.753,23.798 C200.147669,23.798 200.443666,23.9829982 200.641,24.353 C201.825006,26.4250104 202.417,28.6573214 202.417,31.05 C202.417,32.6040078 202.158003,34.114826 201.64,35.5825 C201.121997,37.050174 200.357338,38.3883273 199.346,39.597 C198.137327,41.1510078 196.626509,42.3411625 194.8135,43.1675 C193.000491,43.9938375 191.107343,44.407 189.134,44.407 C187.579992,44.407 186.075341,44.141836 184.62,43.6115 C183.164659,43.081164 181.869672,42.3103384 180.735,41.299 Z M208.744,44 C208.546666,44 208.367834,43.9260007 208.2075,43.778 C208.047166,43.6299993 207.967,43.4450011 207.967,43.223 L207.967,18.84 C207.967,18.6426657 208.047166,18.4638341 208.2075,18.3035 C208.367834,18.1431659 208.546666,18.063 208.744,18.063 L212.74,18.063 C212.962001,18.063 213.146999,18.1431659 213.295,18.3035 C213.443001,18.4638341 213.517,18.6426657 213.517,18.84 L213.517,38.524 C213.517,38.7213343 213.590999,38.9001659 213.739,39.0605 C213.887001,39.2208341 214.059666,39.301 214.257,39.301 L223.211,39.301 C223.433001,39.301 223.617999,39.3749993 223.766,39.523 C223.914001,39.6710007 223.988,39.8436657 223.988,40.041 L223.988,43.223 C223.988,43.4450011 223.914001,43.6299993 223.766,43.778 C223.617999,43.9260007 223.433001,44 223.211,44 L208.744,44 Z M232.091,44 C231.893666,44 231.727167,43.9321673 231.5915,43.7965 C231.455833,43.6608327 231.388,43.5066675 231.388,43.334 L231.388,18.766 C231.388,18.5686657 231.461999,18.4021673 231.61,18.2665 C231.758001,18.1308327 231.918332,18.063 232.091,18.063 L235.791,18.063 C235.963668,18.063 236.117833,18.1308327 236.2535,18.2665 C236.389167,18.4021673 236.457,18.5686657 236.457,18.766 L236.457,43.334 C236.457,43.5066675 236.395334,43.6608327 236.272,43.7965 C236.148666,43.9321673 235.988334,44 235.791,44 L232.091,44 Z"/>
    <rect width="54" height="54" y="3" fill="#193BC9" rx="27"/>
    <use fill="#000" filter="url(#logo-a)" xlink:href="#logo-b"/>
    <use fill="#FFF" xlink:href="#logo-b"/>
  </g>
</svg>
